<svg xmlns="http://www.w3.org/2000/svg" viewBox="0 0 393.89 297.69"><defs><style>.cls-1,.cls-2,.cls-3,.cls-4{fill:none;stroke:#8dc63f;}.cls-1{stroke-miterlimit:10;stroke-width:3.7px;}.cls-2,.cls-3,.cls-4{stroke-linecap:round;stroke-linejoin:round;}.cls-2{stroke-width:1.5px;}.cls-3{stroke-width:1.75px;}.cls-4{stroke-width:1.66px;}</style></defs><title>beacony</title><g id="Warstwa_2" data-name="Warstwa 2"><g id="Layer_1" data-name="Layer 1"><polygon class="cls-1" points="137.98 214.91 122.47 276.7 166.27 295.68 260.09 255.95 262.18 234.36 188.37 193.23 137.98 214.91"/><path class="cls-2" d="M122.46,276.7l32.44,6.61-16.58-41.44M166.4,289l-11.5-5.69m-11.18-62.75-5.4,21.31L122.46,276.7M138,214.91l5.74,5.66m22.55,75.11.13-6.67m95.78-54.64L218.93,216.1l34.6,36ZM260.09,256l-6.56-3.83M166.4,289l87.13-36.88m-65.59-51,31,14.94m-30.56-22.87-.43,7.94m-44.22,19.41,44.22-19.41"/><polyline class="cls-3" points="286.25 44.78 294.1 161.83 314 169.42 375.58 98.12 362.13 40.62 346.86 32.33"/><polygon class="cls-3" points="341.26 223.27 334.22 217.44 341.5 213.21 371.23 205.16 373.24 211.54 367.8 214.75 341.26 223.27"/><polygon class="cls-3" points="341.26 223.27 326.94 226 273.52 203.14 266.65 192.01 274.54 193.1 334.22 217.44 341.26 223.27"/><polygon class="cls-3" points="373.24 211.54 389.31 201.51 392.04 157.46 371.23 205.16 373.24 211.54"/><polyline class="cls-3" points="292.08 30.85 253.72 122.46 252.53 128.8"/><polygon class="cls-3" points="375.58 98.12 362.13 40.62 363.68 29.49 370.31 36.24 388.07 88.23 391.92 151.53 375.58 98.12"/><polygon class="cls-1" points="252.57 128.6 253.72 122.46 292.08 30.85 325.07 19.78 354.44 25.46 363.68 29.49 370.31 36.24 388.07 88.23 391.92 151.53 392.04 157.46 389.31 201.51 367.8 214.75 341.26 223.27 326.94 226 273.52 203.14 266.65 192.01 259.87 166.22 254.6 139.09 252.57 128.6"/><polygon class="cls-4" points="392.13 157.09 392 151.17 375.56 97.79 314.11 169.21 341.69 212.94 371.4 204.83 392.13 157.09"/><polygon class="cls-4" points="314.11 169.21 294.19 161.65 271.48 173.12 274.69 192.96 334.42 217.19 341.69 212.94 314.11 169.21"/><polyline class="cls-4" points="286.28 47.62 294.19 161.65 271.48 173.12 258.94 133.57 252.57 128.69"/><polygon class="cls-4" points="288.83 38.14 346.72 32.05 354.28 25.17 324.9 19.54 291.94 30.68 288.83 38.14"/><polygon class="cls-4" points="346.72 32.05 362.01 40.31 363.52 29.18 354.28 25.17 346.72 32.05"/><circle class="cls-4" cx="326.94" cy="59.3" r="3.78" transform="translate(-0.16 0.88) rotate(-0.15)"/><line class="cls-4" x1="258.94" y1="133.57" x2="283.75" y2="50.32"/><path class="cls-4" d="M372.11,55.18c.29,1.13-.11,2.21-.89,2.41s-1.66-.54-1.95-1.68.11-2.2.89-2.4S371.82,54,372.11,55.18Z"/><path class="cls-4" d="M374.19,64c.3,1.13-.11,2.21-.89,2.41s-1.66-.55-1.95-1.68.11-2.2.89-2.41S373.9,62.92,374.19,64Z"/><ellipse class="cls-4" cx="374.85" cy="72.86" rx="1.47" ry="2.11" transform="translate(-6.27 96.74) rotate(-14.58)"/><ellipse class="cls-4" cx="377.03" cy="81.42" rx="1.47" ry="2.11" transform="translate(-8.38 96.82) rotate(-14.47)"/><path class="cls-2" d="M225.52,247.85a26.81,26.81,0,0,1-8.3,2.47s-17,2.69-27.91,1S167,249.15,163,248.88s-7.18-.67-7.92-2h0"/><path class="cls-2" d="M159,226.92a2.81,2.81,0,0,0-2.23,1.8l-2.51,10.8a13.13,13.13,0,0,0,.83,7.39"/><path class="cls-2" d="M174.68,232.16l-6.5,2.51a7.35,7.35,0,0,1-9.24-7.56"/><path class="cls-2" d="M176.14,225.31a9.08,9.08,0,0,0-1.46,6.85"/><path class="cls-2" d="M174.71,230.69a21.33,21.33,0,0,0,27.87,11.53"/><path class="cls-2" d="M163.95,236.27a24.89,24.89,0,0,0,38.78,6l12.93.59a6.65,6.65,0,0,0,2.28-.17,6.74,6.74,0,0,0,3.33-2"/><path class="cls-2" d="M155,235.72a16.61,16.61,0,0,0,11.64-.33"/><path class="cls-2" d="M221.5,240.15a5.68,5.68,0,0,1,2.18,9.94h0a24.33,24.33,0,0,1-16.58,6.49l-49.35.17a5,5,0,0,1-3.53-1.46l1.28-7.9"/><path class="cls-2" d="M221.59,240.15l-13.82-3.24-24-8.83-7.57-2.78a9.1,9.1,0,0,0-1.46,6.85l-6.5,2.51a7.35,7.35,0,0,1-9.24-7.56"/><path class="cls-2" d="M221.59,240.15a5.68,5.68,0,0,1,2.18,9.94h0a24.32,24.32,0,0,1-16.58,6.49l-49.34.17a5,5,0,0,1-3.53-1.46l.85-8.38a13,13,0,0,1-1-4.34,13.16,13.16,0,0,1,.18-3.06l2.51-10.8a2.81,2.81,0,0,1,2.23-1.8"/><line class="cls-2" x1="206.67" y1="241.18" x2="178.55" y2="230.83"/><line class="cls-2" x1="174.68" y1="232.16" x2="184.73" y2="228.43"/><path class="cls-2" d="M212.78,238.1A5.23,5.23,0,0,1,206,241"/><path class="cls-2" d="M221.57,240.14a5.59,5.59,0,0,1,4.18,6.71"/><path class="cls-1" d="M1.95,63.53c-.28.27.12-38.84.12-38.84l27.27-.05,0-15.7,99.42-7.07,60.84,23.71s24,59.26,23.68,60C212.57,87,191,147.74,191,147.74L131.8,174,28.94,167.32l0-12.95L2,154.63l.07-43.72,26.77,0,0-12.95,99.15-.46c9.32-.19,11.15-4.25,11.09-10.76-.08-8.45-10.3-8.52-10.3-8.52s-99.19.27-99.74-.28-.27-14.41-.27-14.41Z"/><line class="cls-2" x1="31.24" y1="24.51" x2="30.69" y2="63.34"/><line class="cls-2" x1="30.27" y1="111.41" x2="30.34" y2="155.2"/><line class="cls-2" x1="43.68" y1="42.41" x2="129.06" y2="41.42"/><path class="cls-2" d="M130.71,41.45s13.5,6.61,13.63,6.2,40.17-16.79,40.17-16.79"/><line class="cls-2" x1="133.86" y1="77.75" x2="144.35" y2="47.64"/><polyline class="cls-2" points="139.53 82.33 167.07 69.82 183.85 31.2"/><line class="cls-2" x1="172.99" y1="85.93" x2="167" y2="69.84"/><path class="cls-2" d="M173,85.93s-5,15.29-5.37,15.29,17.78,40.94,17.78,40.94"/><line class="cls-2" x1="140.22" y1="90.51" x2="167.62" y2="101.22"/><path class="cls-2" d="M145.45,124.35c-.09-.46-11.13-26.56-11.13-26.56"/><line class="cls-2" x1="185.41" y1="142.15" x2="145.5" y2="123.98"/><line class="cls-2" x1="130.18" y1="130.96" x2="145.59" y2="124.18"/><line class="cls-2" x1="43.68" y1="130.96" x2="130.18" y2="130.96"/><line class="cls-2" x1="140.22" y1="85.93" x2="213.29" y2="85.93"/><path class="cls-2" d="M129.06,3.16c.76,50.22.83,74.23.83,74.23"/><line class="cls-2" x1="189.72" y1="25.57" x2="136.64" y2="79.46"/><path class="cls-2" d="M138.1,94.24c.55,0,52.24,53,52.24,53"/><path class="cls-2" d="M129.06,97.87c0,.41,1.65,76.34,1.65,76.34"/><rect class="cls-2" x="6.73" y="30.08" width="20.93" height="4.6" rx="1.5" ry="1.5"/><rect class="cls-2" x="6.73" y="37.66" width="20.93" height="4.6" rx="1.5" ry="1.5"/><rect class="cls-2" x="6.73" y="45.26" width="20.93" height="4.6" rx="1.5" ry="1.5"/><rect class="cls-2" x="6.73" y="53.01" width="20.93" height="4.6" rx="1.5" ry="1.5"/><line class="cls-2" x1="29.49" y1="9.5" x2="128.51" y2="10.2"/><polyline class="cls-2" points="129.12 10.2 183.85 31.2 204.98 85.93 185.41 142.15 131.4 165.12 29.15 167.15"/></g></g></svg>