<svg xmlns="http://www.w3.org/2000/svg" viewBox="0 0 149.86 68.11"><defs><style>.cls-1,.cls-2{fill:none;stroke:#8dc63f;}.cls-1{stroke-linecap:round;stroke-linejoin:round;stroke-width:2px;}.cls-2{stroke-miterlimit:10;stroke-width:3.7px;}</style></defs><title>but z chmury</title><g id="Warstwa_2" data-name="Warstwa 2"><g id="Layer_1" data-name="Layer 1"><path class="cls-1" d="M147.24,48.13a54.48,54.48,0,0,1-16.9,5s-34.68,5.48-56.82,2-45.38-4.41-53.59-5S5.3,48.87,3.8,46.13h0"/><path class="cls-1" d="M11.72,5.51A5.73,5.73,0,0,0,7.18,9.18l-5.11,22a26.72,26.72,0,0,0,1.7,15.05"/><path class="cls-1" d="M43.73,16.19,30.5,21.3A15,15,0,0,1,11.69,5.9"/><path class="cls-1" d="M46.7,2.23a18.5,18.5,0,0,0-3,14"/><path class="cls-1" d="M43.8,13.2a43.42,43.42,0,0,0,56.74,23.48"/><path class="cls-1" d="M21.75,50.17A21.17,21.17,0,0,0,3.09,26.76"/><path class="cls-1" d="M21.89,24.54a50.65,50.65,0,0,0,44.26,26,50.47,50.47,0,0,0,34.7-13.76L127.18,38a13.6,13.6,0,0,0,4.63-.35,13.74,13.74,0,0,0,6.77-4.06"/><path class="cls-1" d="M3.77,23.44a33.62,33.62,0,0,0,11,1.82,33.61,33.61,0,0,0,12.74-2.49"/><path class="cls-1" d="M139,32.45a11.56,11.56,0,0,1,4.44,20.24h-.05a49.52,49.52,0,0,1-33.75,13.22L9.23,66.26a10.14,10.14,0,0,1-7.19-3L4.65,47.2"/><path class="cls-2" d="M139.24,32.45,111.1,25.86,62.3,7.9,46.89,2.23a18.53,18.53,0,0,0-3,14L30.69,21.3A15,15,0,0,1,11.88,5.91"/><path class="cls-2" d="M139.24,32.45a11.56,11.56,0,0,1,4.44,20.24h-.05a49.52,49.52,0,0,1-33.75,13.22L9.42,66.26a10.15,10.15,0,0,1-7.19-3L4,46.21a26.74,26.74,0,0,1-1.7-15.05l5.11-22a5.73,5.73,0,0,1,4.55-3.67"/><line class="cls-1" x1="106.59" y1="24.02" x2="107.41" y2="28.95"/><line class="cls-1" x1="94.24" y1="19.6" x2="94.05" y2="24.6"/><line class="cls-1" x1="80.91" y1="14.75" x2="81.74" y2="19.68"/><line class="cls-1" x1="67.67" y1="9.75" x2="68.5" y2="14.68"/><line class="cls-1" x1="108.87" y1="34.55" x2="51.61" y2="13.48"/><line class="cls-1" x1="43.73" y1="16.19" x2="64.2" y2="8.6"/><path class="cls-1" d="M121.31,28.28a10.64,10.64,0,0,1-13.85,5.89"/><path class="cls-1" d="M82.56,56.11S13.9,60.5,3.2,56.11"/><path class="cls-1" d="M139.2,32.43a11.38,11.38,0,0,1,8.52,13.66"/></g></g></svg>