<svg xmlns="http://www.w3.org/2000/svg" viewBox="0 0 241.97 392.59"><defs><style>.cls-1,.cls-2,.cls-3,.cls-4{fill:none;stroke:#8dc63f;}.cls-1,.cls-4{stroke-linecap:round;stroke-linejoin:round;}.cls-1,.cls-3,.cls-4{stroke-width:2px;}.cls-2,.cls-3{stroke-miterlimit:10;}.cls-2{stroke-width:4px;}.cls-4{stroke-dasharray:10;}</style></defs><title>kieszen</title><g id="Warstwa_2" data-name="Warstwa 2"><g id="Layer_1" data-name="Layer 1"><path class="cls-1" d="M110.35,41.86,82.77,48a2.68,2.68,0,0,1-1.16-5.22l27.59-6.12a2.68,2.68,0,0,1,1.16,5.22Z" transform="translate(0 0)"/><circle class="cls-1" cx="71.01" cy="47.85" r="2.71" transform="translate(-8.68 16.53) rotate(-12.52)"/><ellipse class="cls-1" cx="86.99" cy="32.81" rx="3.16" ry="3.15" transform="translate(-5.05 19.66) rotate(-12.53)"/><path class="cls-2" d="M25.32,138.61,12,138.69A10.1,10.1,0,0,0,2,148.75V337.33a15.69,15.69,0,0,0,9.34,13.58l99.76,38.24c5.14,2,13.52,1.91,18.63-.13l101-40.28c5.11-2,9.29-8.21,9.29-13.71V148a9.85,9.85,0,0,0-10-9.85l-38,.56" transform="translate(0 0)"/><line class="cls-1" x1="3.94" y1="194.77" x2="239.98" y2="193.8"/><line class="cls-1" x1="24.24" y1="138.61" x2="192.71" y2="138.33"/><polyline class="cls-3" points="37.03 138.33 23.92 73.65 163.44 45.37 182.22 138.04"/><path class="cls-4" d="M189,120.93l40.16,198.28a20.06,20.06,0,0,1-15.63,23.57L92.77,367.26A20.06,20.06,0,0,1,69.2,351.63L22.88,122.93" transform="translate(0 0)"/><path class="cls-2" d="M25.32,138.61,8,50.47a20.21,20.21,0,0,1,15.75-23.6L144.54,2.4A20.1,20.1,0,0,1,168.14,18l24.57,120.3" transform="translate(0 0)"/></g></g></svg>