<svg xmlns="http://www.w3.org/2000/svg" viewBox="0 0 53.08 50.48"><defs><style>.cls-1,.cls-2{fill:none;stroke:#8dc63f;stroke-linecap:round;stroke-linejoin:round;}.cls-2{stroke-width:2px;}</style></defs><title>IKONA BUT</title><g id="Warstwa_2" data-name="Warstwa 2"><g id="Layer_1" data-name="Layer 1"><path class="cls-1" d="M42.84,26.26A11.94,11.94,0,0,1,39.42,28s-7.23,2.6-12.13,2.76-9.93.91-11.72,1.13-3.2.3-3.63-.22h0"/><path class="cls-1" d="M12,22.64a1.25,1.25,0,0,0-.83,1L11,28.55a5.85,5.85,0,0,0,1,3.17"/><path class="cls-1" d="M19.29,23.63l-2.63,1.64A3.27,3.27,0,0,1,12,22.73"/><path class="cls-1" d="M19.36,20.51a4,4,0,0,0-.07,3.12"/><path class="cls-1" d="M19.19,23a9.5,9.5,0,0,0,13.15,2.73"/><path class="cls-1" d="M14.94,26.32a11.09,11.09,0,0,0,17.47-.6l5.71-.82a3,3,0,0,0,1-.26,3,3,0,0,0,1.29-1.15"/><path class="cls-1" d="M11,26.82a7.39,7.39,0,0,0,5.07-1.11"/><path class="cls-1" d="M40.44,23.22a2.53,2.53,0,0,1,1.78,4.17h0a10.83,10.83,0,0,1-6.71,4.22L13.93,35.8a2.22,2.22,0,0,1-1.67-.35l-.1-3.56"/><path class="cls-1" d="M40.48,23.22,34.17,23,22.95,21.09,19.4,20.5a4.05,4.05,0,0,0-.07,3.12L16.7,25.26A3.27,3.27,0,0,1,12,22.72"/><path class="cls-1" d="M40.48,23.22a2.53,2.53,0,0,1,1.78,4.17h0a10.83,10.83,0,0,1-6.71,4.22L14,35.79a2.22,2.22,0,0,1-1.67-.35L12,31.71a5.84,5.84,0,0,1-1-3.16l.2-4.93a1.25,1.25,0,0,1,.83-1"/><path class="cls-1" d="M40.47,23.21a2.49,2.49,0,0,1,2.39,2.59"/><path class="cls-2" d="M51.9,36.41c.8,3-1.24,5.95-4.55,6.6l-32,6.34a6.37,6.37,0,0,1-7.45-4.23L1.17,14.07c-.8-3,1.24-5.95,4.55-6.6l32-6.34A6.37,6.37,0,0,1,45.2,5.36Z"/></g></g></svg>